<svg width="500" height="300" version="1.1" viewBox="0 0 500 300" xml:space="preserve" xmlns="http://www.w3.org/2000/svg">
<style type="text/css">
	.st0{fill:#D9058D;}
	.st1{fill:#FFFFFF;}
	.st2{fill:none;}
</style>

<g transform="matrix(.38984 0 0 .38984 .50379 -5.9351)">
	<path class="st0" d="m977.5 290c-2.7-1-14.5-12.2-17.5-14.9l-42.5-38.2c-6.5-5.8-8.6-6.9-16.8-10-16.5-6.3-44 6.6-50.3 22.9-6 15.7-2.3 24.7 1.8 38.2 1 3.5 3.8 7 4.6 10.4-1.7 1.2-10 5.6-12 4.8l-38.2-14.7c-2.9-1.1-1-8.9-1.8-12.2-0.9-3.3-67.5-67.7-69.2-69.3-4.7-4.7-5.7-3.4-11.3-1.8-9.1 2.7-76.6 22.4-77.1 23.6-0.7 1.8-0.6 2-0.1 3.4 1.1 3.5 3.5 6 4.9 9.2 1.8 4.1 4.2 8.6 5.5 12.8 2 6.6 6.1 21.1 5.1 28.2l-35.6 5.2c-3.1 0.5-5.5 1.6-9.5 0.3-12.1-3.9-8.7-4.3-19.6-0.7-3 1-5.7 1.6-8.5 2.5-11.4 3.2-22.6 6.4-34.2 9.7-10.1 2.9-8.6 5.2-16.9-0.5-30.1-20.7-69.6-23.8-103.5-16.1-3.9-4.4-7.6-9.1-11.1-13.7-3.7-4.7-7.6-9.2-11.4-14.2-13-16.7-31.8-41.4-47.9-54.4-23.1-18.7-51.9-28.8-81.3-31.2-20-1.7-43.1 0.8-62.3 6.2-11.5 3.2-22.4 8.1-32 15.8-13.9 11-25.6 24.1-34 40.4-11.7 22.5-23.4 50.4-15.5 74.7 1 3.1 2.1 6.1 4.3 8.9 2.3 3 3.7 5.1 6 8l12 16.2c2.1 2.9 3.9 5.2 6 8.1 13.1 17.8 24.3 29.6 28.2 51.9 0.3 2 0.6 2.9 0.8 4.8s0 3.6 0.2 5.5c-39.9-15.3-81.3-21.1-112.2 3.4-17.4 13.7-21.8 25.6-30 46.9-4.4 11.5-4.8 23.9-3.3 34.3 1.4 10.2 4.5 20.1 10 28.9 4.6 7.4 15.1 17.6 21.8 24.2 1.8 1.8 2.8 2.9 4.5 4.8l32.4 35.3c11.3 11.5 33.2 26.9 51.8 34.1 11.6 4.5 23.2 6 32.9 6.4 2.8 0.1 4.4-0.1 7.2-0.2 12.2-0.7 23.2-4.8 34-10.1 8.4-4.1 29.9-20.1 33.5-27.6 12.1 4.9 70 71.8 144.2 24.2 5.7-3.7 19-13.5 23-19.5 5.5 2.3 9.5 6 16.2 8.6 26.2 10.1 42 12.9 69.2 10.6 2.5-0.2 3.8 0 6.1-0.4l43.7-8.6c8-1.9 15.6-4.7 23.3-7.2 5.4-1.8 5.7-3.5 13.4-0.5 23.2 8.8 52.8 15.3 76.7 20 26.8 5.2 56.4 7.6 83.7 6.4l38.3-4.1c25-3.2 48.5-12.6 71.2-22.9 14.3-6.4 7.6-6.3 23.1-0.4 2 0.8 7.6 10.8 10.3 11.8 3 1.1 10.1 1.1 12.9 1 13.8-0.2 47.4 1.5 63.8 2.3l19 0.7c9.4 0.3 6.4-4.4 4.7-12.5 9.5 3.7 22.2 7.2 31.8 9.4 28.6 6.3 59.3 9.7 86.4 3.7 12-2.7 25.7-7.1 35.1-15.1 45.5-38.5 63.3-87.6 49.2-145.8-0.5-2.1-0.5-1.7-1.2-3.5-0.7-1.9-0.7-2.2-1.3-4-6.6-19.2-19.7-40.1-34.6-54.1-2.1-2-4-3.6-6-5.8l-58.2-61.8c-1.3-1.3-1.9-1.9-3.1-3.2-13.7-15.6-28.6-15-33.9-18.8-7.4-5.2-13.6-10.3-22.6-13.7-21.6-8.3-46.4-6.6-66.5-2.1-3.3 0.8-6.3 1.3-9.7 2.2-1.5 0.5-9.7 3-10.1 2.9"/>
	<path class="st1" d="m1087.7 465.3c-2.1-4-9.4-10.1-10.5-19-1.5-11.4 5.9-33.9 29-31 51.7 6.6 30 74.4-2 99.7-19.6 15.5-52.3 26.3-84.7 22.9-38.3-4-64.3-30.5-80.1-55l-9.7-19.5c-7.7-25.3-10.9-38.9-5.5-68.8 8.8-48.3 32.1-72.8 74.3-89 51.4-19.7 95.6 6.6 124.7 49l11.7 18.4c-1.6 4-5.8 5.4-8.9 7.2-3.4 1.9-6 3.5-9.4 5.5l-55.8 32.1c-12.7 7.1-24.7 14.4-37.3 21.5l-37.2 21.8c9.4 15.9 31.6 32.8 52.8 31 16.3-1.6 40.8-16.3 48.6-26.8zm-116.2-48.5c0.2 0 0.5-0.1 0.6-0.2l12.1-6.2c2.1-1.2 4.4-2.4 6.4-3.5 20.8-10.8 47-26.7 66.8-36.6l9.1-5c0.2-0.1 1.2-0.7 1.4-0.9 1.4-1-0.6 0.8 1.5-1.2-5.1-3.5-8.8-8-15.3-11.8-17.9-10.4-36-8.5-52.9 1.8-9 5.4-19.3 12.9-25.7 25.2-7.7 14.5-5.6 26.2-4 38.4zm-106.5-96.9c1.7-4.3 5.2-4.3 12.6-6.6l26.7-8.6c7.8-2.4 9.3-4.2 14-2.3 0.8 3.5-1.9 108.5-2 114.9-0.4 19.3-0.9 38.3-1.2 57.6-0.3 17.5-3.1 35.8 3.2 48.9 5 10.5-4.6 7.4-26.6 7.6-5.6 0.1-24 1.6-28.1-1.4-0.2-3.8 4.2-8.9 5.3-13.6 1.2-5.2 2.3-154.1 2.6-173.6 0.1-15.3 0.3-13.3-6.5-22.9zm-650.4-13.6c-0.8 6.1 0 10.9-4.2 17.4-9.2 14.6-33.8 9.5-45.5 0.5-16.3-12.6-15.6-36.6-8.3-59.9 7.6-24.2 24-41.7 40.5-52 14.6-9.1 36.8-19 54-21 48.3-5.4 90.3 10.3 120.9 48.1 13.5 16.8 19.6 33.9 17.1 56.3-3 27.8-18.8 44.2-32.4 63.1 10.5 4.2 19.8 10.9 26.8 18 3.7 3.8 6.7 7.3 9.4 11 2.8 3.7 5 8.3 7.5 11.2 3.1-1 6.3-3.6 9.4-5.1 3.4-1.5 6.1-3.4 9.6-5.1 40.6-18.7 74.3-5.8 78.4-31.8 1.1-7.3-2.2-15.4-9.7-19-14.9-7.2-34.6 1-45 3.2-0.4 6.3 3.7 19.9-7.8 28.5-5.7 4.3-17.9 6.6-27.6 3.8-12-3.4-14.9-12.3-14.1-22.6 0.7-9.4 5.4-23.8 10.8-31.8 10.7-16.1 30.8-20.7 49.1-21.7 14.6-0.8 46.6 1.4 61.6 7.2 19.7 7.5 34 23.3 33.6 44l-1.1 117.4c0 6.5 0.7 56.3-1.8 58.3-2.2 1.7-23.6 0.7-26.3 0.7-4.8 0.1-8.8 0.1-13.5 0.1-7.6 0-5.4-2-7.3-7.2-9.3 3.5-15.4 7.1-24.5 9.4-36.8 9.4-57.3-0.9-86.5-18.5-8.3 8.7-9.7 11.5-20.2 20.1-21.2 17.2-47.6 25.3-77.8 20.7-26-4-38.5-12.5-59.1-26.8-8.3-5.8-16.5-11.7-24.3-18-3.9-3.2-8-6.3-11.6-9.5-3.1-2.8-7.6-7.2-10.7-9.1 19.5 26.4-17.6 61.5-36 64.2-3.7 0.5-7.1 1.1-11.3 1.3-32.7 1.2-67.2-25.2-71.8-57.9-2.5-18 2.4-35.1 14.3-50.9 24.7-32.7 49-37.5 87.4-22 24.4 9.8 30.9 18.9 46.7 27.9zm-0.3-3.3c0.5-11.7-9.1-22.7-8.5-25.2 1.8-2.6 3.9-2.8 6.4-3.6 2.6-0.8 4.1-1.3 6.9-2.2 53.3-17.5 44.8-17.6 44.6 6.1 0 6.4-0.1 12.5-0.1 18.8 0 6.2-0.1 12.5-0.2 18.7-0.1 6.3 0.2 13.1-0.2 19.3 10.6 3.4 30.5 3 39.7 1.2 11.1-2.2 23-8.2 29-23.8 9-23.4 7.1-57.9-22.7-69.5-15.2-5.9-27.5-6.2-42.1-6-26.6 0.4-61.1 13.9-69.5 43-3.2 11.9 7.4-2.7 16.7 23.2zm48.8 85.3c-1.3 18.2-0.8 68-1 89.6-0.2 16.3-1.8 13.9 6.4 19.2 7 4.5 16.1 9 24.3 10.5 16.4 3.1 29.9-2.5 40-10.6 10.4-8.2 19.7-30.3 21.5-44.9 7.7-61.8-42.8-71.8-91.2-63.8zm172.7 95.7c10.1 3.9 22.3 3.2 31.8 1.8 32.2-4.6 30.5-23.5 30.6-43.6l0.2-22.7c0-1.2 0.1-2.6 0.1-4v-1.7l-0.5-2c-6.8 1.7-50.9 15.9-57.5 19.3-25.6 13-24.9 45.2-4.7 52.9zm-302.5 20.8c2-13.2 5.8-21.8 16.2-26 12.3-4.9 17.6-1.9 31.2 4-1.8-0.8-8-7.7-10.2-10.1-3.6-3.8-7.7-6.3-12.6-9-28.4-15.6-47.4 0.7-46.1 21.6 0.6 10.8 12.7 17.9 21.5 19.5zm544.1-188.1c0.9-2.4 0.8-26.9 0.8-31.5 0-9.7 1.2-22.6-0.8-31.3-2.6-10.7-11.7-15.8-3.4-18.2 2.5-0.7 4.6-1.3 7-2 9.3-2.4 19-5.5 28.1-8.2 20.2-6.1 19.3-7.2 18.9 8.1-0.2 5.8-2.3 92.4-1.1 95.9 7.4-14.6 20.5-20.9 35.4-24.9 36.3-9.7 60.7-1 82.7 29.5 22.3 31 28.9 87.3 14.7 124.2-8.9 23.3-26.7 51.8-47.4 64.3-32.7 19.7-78.6 17-118.9 1.5-19.2-7.4-18.6-5.3-18.5-15.3l1.8-128c0.1-3.6 1.5-42.6 0-46.4-6.7 15-17 27.8-33.1 21.7-8.5-3.3-11.4-8.7-17.1-13-19.6 15.9-17.1 34.4-17.6 61.1l-2.9 82.2c-0.5 13.5-1.4 17.1 2.6 29.3 1 3.1 3.6 5.1 1.5 8.2-1.6 1.6-2 0.9-7.1 0.9-2.3 0-4.7 0.1-6.8 0-52.5-1.2-42.5 5.5-38.9-16.1 0.7-4.5 0.8-8.9 1-12.9 0.3-8.9 0.4-17.2 0.7-25.8l4-129c-2-17.9-17.4-21.7-5.2-25.4l30.6-11.4c14.7-5.7 11.4-6.9 17.3 6l2.8-1.5c13.7-8.5 27.9-15.3 46.3-8.2 8.4 3.1 20.6 9.5 22.6 16.2zm48.7 43.6c-1 4.9-0.6 16.8-0.6 22.6l-1.6 100.8c0.7 2.7 5.2 5.4 8.3 7 14.4 7.1 33.3 3.1 43.7-0.6 12.1-4.4 23.1-13.1 31.4-29.9 7.5-15.2 12.2-33.7 11.4-49.3-1.3-26.1-5.5-68.2-40.2-65-0.4 14-14.6 23.3-21.9 26.1-14.1 5.3-21.2-1.3-30.5-11.7zm168.5-116.4c-12.7-1.9-27.3 6.2-29.5 22.6-1.7 12.2 6.6 27.5 22.8 29.3 6.9 0.7 13.7-1.9 17.8-4.5 18.9-12.3 13.7-43.6-11.1-47.4"/>
<rect class="st2" x="25.1" y="129.8" width="1229.8" height="540.4"/></g>
</svg>
